<svg width="85" height="85" fill="none" xmlns="http://www.w3.org/2000/svg" viewBox="0 0 80 80"><g filter="url(#mail_color_svg__filter0_i)"><path d="M18.095 0h43.81C71.905 0 80 8.095 80 18.095v43.81C80 71.905 71.905 80 61.905 80h-43.81C8.095 80 0 71.905 0 61.905v-43.81C0 8.095 8.095 0 18.095 0z" fill="url(#mail_color_svg__mail)"></path><path d="M66.016 22h-51.59c-.468 0-.91.138-1.295.358l.551.552L36.816 46.07a4.826 4.826 0 006.81 0L67.34 22.386A2.474 2.474 0 0066.016 22zM68.47 24.454c0-.469-.138-.91-.359-1.296l-17.095 17.26 17.15 17.096c.193-.358.303-.772.303-1.185V24.454zM12 24.454c0-.469.138-.91.358-1.296l17.096 17.26-17.15 17.096A2.525 2.525 0 0112 56.33V24.454z" fill="#fff"></path><path d="M50.107 41.218l-5.984 5.984c-2.15 2.15-5.68 2.15-7.83 0l-5.984-5.956-17.178 17.15c.386.221.8.36 1.268.36h51.59c.468 0 .91-.139 1.268-.36l-1.02-1.02-16.13-16.157z" fill="#fff"></path></g><defs><linearGradient id="mail_color_svg__mail" x1="40" y1="0" x2="40" y2="80" gradientUnits="userSpaceOnUse"><stop stop-color="#1E51EE"></stop><stop offset="1" stop-color="#19E4FF"></stop></linearGradient><filter id="mail_color_svg__filter0_i" x="0" y="-1" width="80" height="81" filterUnits="userSpaceOnUse" color-interpolation-filters="sRGB"><feFlood flood-opacity="0" result="BackgroundImageFix"></feFlood><feBlend in="SourceGraphic" in2="BackgroundImageFix" result="shape"></feBlend><feColorMatrix in="SourceAlpha" values="0 0 0 0 0 0 0 0 0 0 0 0 0 0 0 0 0 0 127 0" result="hardAlpha"></feColorMatrix><feOffset dy="-1"></feOffset><feGaussianBlur stdDeviation="0.5"></feGaussianBlur><feComposite in2="hardAlpha" operator="arithmetic" k2="-1" k3="1"></feComposite><feColorMatrix values="0 0 0 0 0 0 0 0 0 0 0 0 0 0 0 0 0 0 0.12 0"></feColorMatrix><feBlend in2="shape" result="effect1_innerShadow"></feBlend></filter></defs></svg>
