<svg width="128" height="128" version="1.1" viewBox="0 0 128 128" xmlns="http://www.w3.org/2000/svg">
  <rect width="100%" height="100%" fill="#f5c518"/>
  <g transform="matrix(2,0,0,2,16,46)">
    <polygon points="0 0 0 18 5 18 5 0"/>
    <path d="m15.673 0-1.12 8.408-.695-4.573A126.175 126.175 0 0 0 13.278 0H7v18h4.242l.016-11.886L13.044 18h3.02l1.694-12.148L17.771 18H22V0Z"/>
    <path d="M24 18V0h7.805A3.185 3.185 0 0 1 35 3.177v11.646A3.185 3.185 0 0 1 31.805 18zm5.832-14.76c-.198-.108-.577-.16-1.13-.16v11.811c.73 0 1.178-.13 1.346-.404.168-.27.254-1 .254-2.2v-6.98c0-.813-.03-1.333-.086-1.563a.736.736 0 0 0-.384-.504z"/>
    <path d="M44.43 4.507h.32c1.795 0 3.25 1.406 3.25 3.138v7.217C48 16.595 46.545 18 44.75 18h-.32a3.282 3.282 0 0 1-2.658-1.332l-.288 1.1H37V0h4.784v5.78a3.387 3.387 0 0 1 2.646-1.273zm-1.024 8.777V9.02c0-.705-.046-1.167-.14-1.38-.094-.213-.47-.35-.734-.35s-.671.111-.75.299v7.22c.09.205.478.32.75.32s.666-.111.75-.32c.082-.21.124-.72.124-1.524z"/>
  </g>
</svg>
