<svg width="85" height="85" fill="none" xmlns="http://www.w3.org/2000/svg" viewBox="0 0 80 80">
  <rect width="100%" height="100%" fill="url(#gradient1)"/>
  <rect width="100%" height="100%" fill="url(#gradient2)"/>
  <path d="M38.762 10.476H50.19c2.381 0 4.858.19 7.239.857 4.19 1.143 7.428 3.524 9.619 7.238 1.333 2.286 1.904 4.762 2.19 7.334.19 2.285.286 4.571.286 6.857v16.952c0 2.572-.19 5.143-.857 7.715-1.429 5.142-4.572 8.761-9.524 10.666-2.381.953-4.953 1.238-7.524 1.334-6.286.095-12.571.19-18.857.19-2.667 0-5.429-.095-8-.476-3.714-.476-6.953-1.905-9.62-4.667-2.475-2.571-3.809-5.714-4.285-9.238-.571-4.762-.476-9.524-.476-14.38 0-4 .095-7.906.095-11.906.095-2.762.286-5.524 1.333-8.19 1.905-4.953 5.43-8 10.572-9.429 2.38-.666 4.857-.762 7.333-.857h9.048zm25.524 29.62c0-2.287.095-4.477 0-6.763-.096-2.762-.19-5.619-.477-8.38a9.298 9.298 0 0 0-2.285-5.239c-2.19-2.571-5.048-3.714-8.286-3.905-3.143-.19-6.38-.285-9.524-.285-5.714 0-11.428.095-17.143.285-2.095.096-4.095.572-5.904 1.715-2.953 1.81-4.477 4.571-4.762 7.904-.286 2.858-.381 5.715-.476 8.572 0 5.524 0 10.952.095 16.476 0 1.905.286 3.905.667 5.714.57 2.477 2 4.477 4.095 5.905 2.095 1.429 4.571 1.905 7.047 2 2.953.095 5.81.19 8.762.19 5.62 0 11.238-.095 16.857-.19C55.333 64 57.62 63.43 59.524 62c2.38-1.714 3.81-4.095 4.19-6.953.286-2.095.381-4.19.477-6.285.095-2.857.095-5.715.095-8.667z" fill="#fff"/>
  <path d="M54.954 40c0 8.476-6.762 15.143-15.238 15.143-8.286 0-15.048-6.857-15.048-15.238 0-8.286 6.857-15.143 15.238-15.143 8.286.095 15.048 6.857 15.048 15.238zm-25.048 0c0 5.524 4.476 10 10 10s10-4.476 10-10c0-5.428-4.476-9.905-10-9.905-5.619 0-10 4.381-10 9.905zm25.712-19.238c2 0 3.524 1.524 3.524 3.428 0 1.905-1.524 3.524-3.429 3.524-1.904 0-3.523-1.523-3.523-3.428 0-2 1.523-3.524 3.428-3.524z" fill="#fff"/>
  <defs>
    <radialGradient id="gradient1" cx="0" cy="0" r="1" gradientUnits="userSpaceOnUse" gradientTransform="translate(5.178 78.247) scale(101.57)">
      <stop offset="0.09" stop-color="#FA8F21"/>
      <stop offset="0.78" stop-color="#D82D7E"/>
    </radialGradient>
    <radialGradient id="gradient2" cx="0" cy="0" r="1" gradientUnits="userSpaceOnUse" gradientTransform="translate(55.413 75.679) scale(89.3828)">
      <stop offset="0.64" stop-color="#8C3AAA" stop-opacity="0"/>
      <stop offset="1" stop-color="#8C3AAA"/>
    </radialGradient>
  </defs>
</svg>
