<svg width="85" height="85" fill="none" xmlns="http://www.w3.org/2000/svg" viewBox="0 0 80 80">
  <rect width="100%" height="100%" fill="#0A66C2"/>
  <path d="M15.898 31.635h10.551V64.94H15.898V31.635zm5.278-16.576c1.21 0 2.394.352 3.4 1.012a6.028 6.028 0 0 1 2.253 2.694 5.896 5.896 0 0 1 .347 3.468 5.967 5.967 0 0 1-1.676 3.073 6.155 6.155 0 0 1-3.134 1.642 6.227 6.227 0 0 1-3.535-.344 6.093 6.093 0 0 1-2.744-2.213 5.921 5.921 0 0 1-1.028-3.336 5.945 5.945 0 0 1 1.793-4.24 6.179 6.179 0 0 1 4.324-1.756zM32 31.86h10.127v4.54h.14c1.411-2.6 4.853-5.342 9.992-5.342 10.699-.023 12.682 6.83 12.682 15.715V64.94H54.377V48.846c0-3.832-.07-8.766-5.49-8.766-5.419 0-6.34 4.179-6.34 8.516v16.345H32V31.86z" fill="#fff"/>
</svg>
