<svg width="85" height="85" fill="none" xmlns="http://www.w3.org/2000/svg" viewBox="0 0 80 80"><g filter="url(#linkedin_color_svg__filter0_i)"><path d="M18.095 0h43.81C71.905 0 80 8.095 80 18.095v43.81C80 71.905 71.905 80 61.905 80h-43.81C8.095 80 0 71.905 0 61.905v-43.81C0 8.095 8.095 0 18.095 0z" fill="#0A66C2"></path><path d="M15.898 31.635h10.551V64.94H15.898V31.635zm5.278-16.576c1.21 0 2.394.352 3.4 1.012a6.028 6.028 0 012.253 2.694 5.896 5.896 0 01.347 3.468 5.967 5.967 0 01-1.676 3.073 6.155 6.155 0 01-3.134 1.642 6.227 6.227 0 01-3.535-.344 6.093 6.093 0 01-2.744-2.213 5.921 5.921 0 01-1.028-3.336 5.945 5.945 0 011.793-4.24 6.179 6.179 0 014.324-1.756zM32 31.86h10.127V36.4h.14c1.411-2.6 4.853-5.342 9.992-5.342 10.699-.023 12.682 6.83 12.682 15.715V64.94H54.377V48.846c0-3.832-.07-8.766-5.49-8.766-5.419 0-6.34 4.179-6.34 8.516v16.345H32V31.86z" fill="#fff"></path></g><defs><filter id="linkedin_color_svg__filter0_i" x="0" y="-1" width="80" height="81" filterUnits="userSpaceOnUse" color-interpolation-filters="sRGB"><feFlood flood-opacity="0" result="BackgroundImageFix"></feFlood><feBlend in="SourceGraphic" in2="BackgroundImageFix" result="shape"></feBlend><feColorMatrix in="SourceAlpha" values="0 0 0 0 0 0 0 0 0 0 0 0 0 0 0 0 0 0 127 0" result="hardAlpha"></feColorMatrix><feOffset dy="-1"></feOffset><feGaussianBlur stdDeviation="0.5"></feGaussianBlur><feComposite in2="hardAlpha" operator="arithmetic" k2="-1" k3="1"></feComposite><feColorMatrix values="0 0 0 0 0 0 0 0 0 0 0 0 0 0 0 0 0 0 0.12 0"></feColorMatrix><feBlend in2="shape" result="effect1_innerShadow"></feBlend></filter></defs></svg>
