
<svg xmlns="http://www.w3.org/2000/svg" viewBox="0 0 100 30">
  <linearGradient id="a" gradientTransform="rotate(90)">
    <stop offset="0" stop-color="#44c0ff" />
    <stop offset="1" stop-color="#11afff" />
  </linearGradient>
  <linearGradient id="b">
    <stop offset="0" stop-color="#ff9100" />
    <stop offset=".5" stop-color="#ffb600" />
    <stop offset="1" stop-color="#ffbe0b" />
  </linearGradient>

  <g fill="url(#b)">
    <path d="M7.1 18.9c-1.8 0-3.2-.7-4.1-1.3-.6-.5-1.5-.2-1.9.4l-.9 1.6c-.3.5-.2 1.2.3 1.5 1 .9 3.2 2.2 6.9 2.2 4.7 0 7.6-3.3 7.6-6.7 0-1.8-.6-3.1-1.6-4.2.4 3.4-2.2 6.5-6.3 6.5z" />
    <path d="M9.6 24.4c-.7.1-1.4.2-2.2.2s-1.5-.1-2.1-.1c-.1 0-.3.1-.2.2.3 1.1 1.2 1.9 2.4 1.9s2.2-.8 2.4-2c0-.1-.2-.2-.3-.2z" />
  </g>

  <g fill="url(#a)">
    <path d="M11 1.6C10 1.3 8.8 1 7.3 1c-3.6 0-7 1.9-7 6 0 4.8 4.7 6 5.9 6.4 2.1.8 4.1 1.5 4.1 3.3 1.1-.8 1.8-2.1 1.8-3.5 0-.7-.2-1.3-.4-1.9-.1-.2-.3-.4-.5-.5-.9-.5-1.9-.8-2.8-1.1-3-1-3.6-1.6-3.7-2.7 0-1.4 1.3-2.1 2.8-2.1 2.1 0 4 1.5 4.4 1.9 0 0 1.2-1.2 1.5-2.7V4c0-1.1-1.4-2-2.4-2.4z" />
    <path d="M25.4 22l-.7-1.7c-.1-.3-.4-.4-.7-.3-.3.1-.7.2-1.1.2-.2 0-.3 0-.5-.1-.5-.2-.7-.6-.8-1.3-.1-.4-.1-.8-.1-1.2V12h2.6c.2 0 .3-.1.3-.3V9c0-.2-.1-.3-.3-.3h-2.5V5.5c-1.1-.1-2.3.2-3.2.6s-.6 1.9-.7 2.6H17c-.2 0-.3.1-.3.3v2.6c0 .2.1.3.3.3h.6v6c0 .8.1 1.7.3 2.4.5 1.9 2 3.1 4.3 3.1.3 0 .7 0 1.1-.1.6-.1 1.1-.2 1.7-.4.3-.1.5-.6.4-.9z" />
    <path d="M34.2 8.4c-4.1 0-7.3 3.3-7.3 7.7 0 4.3 2.9 7.4 7.3 7.4.6 0 1.1 0 1.6-.1 2-.3 3.4-1.3 4.6-2.9.2-.2.1-.6-.1-.8l-1.6-1.1c-.3-.2-.6-.1-.8.1-.5.7-1.1 1.2-1.9 1.5-.4.2-.9.2-1.5.2-2 0-3.2-1.3-3.6-3.2 0-.1.1-.3.2-.2.6.1 2.2.3 4.3.3h1.5c1.5-.1 2.8-.2 3.5-.3.3 0 .6-.3.7-.6.1-.4.1-.9.1-1.3 0-1.2-.3-2.4-.9-3.4-1.2-2-3.4-3.3-6.1-3.3zm2.8 5.9h-5.7c-.1 0-.2-.1-.2-.3.5-1.5 1.5-2.5 3.2-2.5 1.5 0 2.7 1 2.9 2.6 0 0-.1.2-.2.2z" />
    <path d="M50.3 8.4c-1.3 0-2.6.4-3.6 1-2.2 1.3-3.7 3.8-3.7 6.7 0 2.3.8 4.2 2.2 5.5 1.3 1.2 3 1.9 5.1 1.9 2.9 0 4.7-1 6.2-3.1.2-.2.1-.6-.1-.8l-1.6-1.1c-.3-.2-.6-.1-.8.1-.8 1.1-1.8 1.7-3.4 1.7-1.9 0-3.2-1.3-3.5-3 0-.1.1-.2.1-.3h.1c.6.1 2.2.3 4.3.3 2 0 4-.2 5-.3.3 0 .6-.3.7-.6.1-.4.1-.9.1-1.3-.1-3.9-3.1-6.7-7.1-6.7zm2.8 5.9h-5.7c-.1 0-.2-.1-.2-.3.1-.2.2-.5.3-.7.5-1.1 1.5-1.8 2.9-1.8 1.5 0 2.7 1 2.9 2.6 0 0-.1.2-.2.2z" />
    <path d="M70.7 9.5c-1-.7-2.2-1.1-3.5-1.1-1.2 0-2.4.5-3.1 1.2v-.2c0-.3-.3-.6-.6-.6h-2.7c-.3 0-.6.3-.6.6V30h1.3c.7-.1 1.4-.3 2-.6.4-.2.6-.6.7-1v-5.9c.7.6 1.6 1 3.1 1 1.6 0 3.1-.6 4.2-1.6 1.5-1.4 2.5-3.5 2.5-6-.2-2.7-1.4-5.1-3.3-6.4zM66 20.2c-.8 0-1.4-.2-1.9-.6l-.1-.1v-6.9s0-.1.1-.1c.4-.4 1.1-.8 1.9-.8 2.2 0 3.8 2 3.8 4.3 0 1.1-.6 4.2-3.8 4.2z" />
    <path d="M83.6 20c-.1-.3-.4-.4-.7-.3-.3.1-.7.2-1.1.2-.8 0-1.2-.5-1.3-1.4-.1-.4-.1-.8-.1-1.2V2.6h-1.3c-.7.1-1.4.3-2 .6-.4.2-.7.6-.7 1.1v13.3c0 .8.1 1.7.3 2.4.5 1.7 1.7 2.8 3.6 3.1h.7c.9 0 1.9-.2 2.7-.5.4-.2.6-.6.4-1l-.5-1.6z" />
    <path d="M93.1 8.4c-4.1 0-7.3 3.3-7.3 7.7 0 4.3 2.9 7.4 7.3 7.4 2.9 0 4.7-1 6.2-3.1.2-.2.1-.6-.1-.8l-1.6-1.1c-.3-.2-.6-.1-.8.1-.8 1.1-1.8 1.7-3.4 1.7-2 0-3.2-1.3-3.6-3.2 0-.1.1-.3.2-.2.6.1 2.2.3 4.3.3 2.1 0 4.2-.2 5.1-.3.3 0 .5-.2.5-.5.1-.5.1-1 .1-1.4.1-3.8-2.9-6.6-6.9-6.6zm2.8 5.9h-5.7c-.1 0-.2-.1-.2-.3.5-1.5 1.5-2.5 3.2-2.5 1.5 0 2.7 1 2.9 2.6 0 0-.1.2-.2.2z" />
  </g>
</svg>
