<svg width="85" height="85" fill="none" xmlns="http://www.w3.org/2000/svg" viewBox="0 0 80 80">
  <rect width="100%" height="100%" fill="#1DA1F2"/>
  <path d="M30.15 61.163c19.237 0 29.758-15.926 29.758-29.735 0-.453-.01-.903-.03-1.351a21.261 21.261 0 0 0 5.217-5.412 20.868 20.868 0 0 1-6.006 1.645 10.49 10.49 0 0 0 4.6-5.78 20.985 20.985 0 0 1-6.642 2.537 10.45 10.45 0 0 0-7.635-3.302c-5.776 0-10.46 4.68-10.46 10.45 0 .82.093 1.617.272 2.382-8.693-.437-16.4-4.596-21.56-10.919a10.416 10.416 0 0 0-1.416 5.253 10.44 10.44 0 0 0 4.655 8.699 10.387 10.387 0 0 1-4.737-1.307c-.002.044-.002.087-.002.133 0 5.062 3.606 9.287 8.391 10.245a10.48 10.48 0 0 1-4.723.18 10.468 10.468 0 0 0 9.77 7.258 20.993 20.993 0 0 1-12.99 4.473c-.843 0-1.676-.048-2.495-.144a29.623 29.623 0 0 0 16.033 4.694" fill="#fff"/>
</svg>
