<svg width="85" height="85" fill="none" xmlns="http://www.w3.org/2000/svg" viewBox="0 0 80 80"><g filter="url(#twitter_color_svg__filter0_i)"><path d="M18.095 0h43.81C71.905 0 80 8.095 80 18.095v43.81C80 71.905 71.905 80 61.905 80h-43.81C8.095 80 0 71.905 0 61.905v-43.81C0 8.095 8.095 0 18.095 0z" fill="#1DA1F2"></path><path d="M30.15 61.163c19.237 0 29.758-15.926 29.758-29.735 0-.453-.01-.903-.03-1.351a21.261 21.261 0 005.217-5.412 20.868 20.868 0 01-6.006 1.645 10.49 10.49 0 004.6-5.78 20.985 20.985 0 01-6.642 2.537 10.45 10.45 0 00-7.635-3.302c-5.776 0-10.46 4.68-10.46 10.45 0 .82.093 1.617.272 2.382-8.693-.437-16.4-4.596-21.56-10.919a10.416 10.416 0 00-1.416 5.253 10.44 10.44 0 004.655 8.699 10.387 10.387 0 01-4.737-1.307c-.002.044-.002.087-.002.133 0 5.062 3.606 9.287 8.391 10.245a10.48 10.48 0 01-4.723.18 10.468 10.468 0 009.77 7.258 20.993 20.993 0 01-12.99 4.473c-.843 0-1.676-.048-2.495-.144a29.623 29.623 0 0016.033 4.694" fill="#fff"></path></g><defs><filter id="twitter_color_svg__filter0_i" x="0" y="-1" width="80" height="81" filterUnits="userSpaceOnUse" color-interpolation-filters="sRGB"><feFlood flood-opacity="0" result="BackgroundImageFix"></feFlood><feBlend in="SourceGraphic" in2="BackgroundImageFix" result="shape"></feBlend><feColorMatrix in="SourceAlpha" values="0 0 0 0 0 0 0 0 0 0 0 0 0 0 0 0 0 0 127 0" result="hardAlpha"></feColorMatrix><feOffset dy="-1"></feOffset><feGaussianBlur stdDeviation="0.5"></feGaussianBlur><feComposite in2="hardAlpha" operator="arithmetic" k2="-1" k3="1"></feComposite><feColorMatrix values="0 0 0 0 0 0 0 0 0 0 0 0 0 0 0 0 0 0 0.12 0"></feColorMatrix><feBlend in2="shape" result="effect1_innerShadow"></feBlend></filter></defs></svg>
